<?xml version="1.0" standalone="no"?><!DOCTYPE svg PUBLIC "-//W3C//DTD SVG 1.1//EN" "http://www.w3.org/Graphics/SVG/1.1/DTD/svg11.dtd"><svg t="1652505881612" class="icon" viewBox="0 0 1024 1024" version="1.1" xmlns="http://www.w3.org/2000/svg" p-id="9115" xmlns:xlink="http://www.w3.org/1999/xlink" width="256" height="256"><defs><style type="text/css">@font-face { font-family: feedback-iconfont; src: url("//at.alicdn.com/t/font_1031158_u69w8yhxdu.woff2?t=1630033759944") format("woff2"), url("//at.alicdn.com/t/font_1031158_u69w8yhxdu.woff?t=1630033759944") format("woff"), url("//at.alicdn.com/t/font_1031158_u69w8yhxdu.ttf?t=1630033759944") format("truetype"); }
</style></defs><path d="M512 64C264.576 64 64 264.576 64 512s200.576 448 448 448 448-200.576 448-448S759.424 64 512 64z m-64 192c0-35.2 28.8-64 64-64s64 28.8 64 64v288c0 35.2-28.8 64-64 64s-64-28.8-64-64V256z m64 576c-44.183 0-80-35.817-80-80s35.817-80 80-80 80 35.817 80 80-35.817 80-80 80z" p-id="9116"></path></svg>