<?xml version="1.0" standalone="no"?><!DOCTYPE svg PUBLIC "-//W3C//DTD SVG 1.1//EN" "http://www.w3.org/Graphics/SVG/1.1/DTD/svg11.dtd"><svg t="1652505856363" class="icon" viewBox="0 0 1024 1024" version="1.1" xmlns="http://www.w3.org/2000/svg" p-id="8747" xmlns:xlink="http://www.w3.org/1999/xlink" width="256" height="256"><defs><style type="text/css">@font-face { font-family: feedback-iconfont; src: url("//at.alicdn.com/t/font_1031158_u69w8yhxdu.woff2?t=1630033759944") format("woff2"), url("//at.alicdn.com/t/font_1031158_u69w8yhxdu.woff?t=1630033759944") format("woff"), url("//at.alicdn.com/t/font_1031158_u69w8yhxdu.ttf?t=1630033759944") format("truetype"); }
</style></defs><path d="M853.333333 405.333333l-0.021333 297.536-0.064-4.010666A149.333333 149.333333 0 1 0 703.850667 853.333333H234.666667a64 64 0 0 1-64-64V405.333333h682.666666z m-153.6 192a102.4 102.4 0 0 1 88.490667 153.962667l61.44 61.44-36.202667 36.202667-61.269333-61.248A102.4 102.4 0 1 1 699.733333 597.333333z m0 64a38.4 38.4 0 1 0 0 76.8 38.4 38.4 0 0 0 0-76.8zM469.333333 448h-170.666666v64h170.666666v-64zM733.482667 170.666667a64 64 0 0 1 57.237333 35.370666l55.850667 111.68A64 64 0 0 1 853.141333 341.333333H171.477333a64 64 0 0 1 5.546667-17.621333l56.490667-116.906667A64 64 0 0 1 291.136 170.666667h442.346667z" p-id="8748"></path></svg>