<?xml version="1.0" standalone="no"?><!DOCTYPE svg PUBLIC "-//W3C//DTD SVG 1.1//EN" "http://www.w3.org/Graphics/SVG/1.1/DTD/svg11.dtd"><svg t="1652505746100" class="icon" viewBox="0 0 1024 1024" version="1.1" xmlns="http://www.w3.org/2000/svg" p-id="7285" width="256" height="256" xmlns:xlink="http://www.w3.org/1999/xlink"><defs><style type="text/css">@font-face { font-family: feedback-iconfont; src: url("//at.alicdn.com/t/font_1031158_u69w8yhxdu.woff2?t=1630033759944") format("woff2"), url("//at.alicdn.com/t/font_1031158_u69w8yhxdu.woff?t=1630033759944") format("woff"), url("//at.alicdn.com/t/font_1031158_u69w8yhxdu.ttf?t=1630033759944") format("truetype"); }
</style></defs><path d="M787.908422 563.765991 787.908422 349.052814c0-152.726403-96.294137-222.682685-223.373417-236.678444 0.031722-0.931209 0.278339-1.811252 0.278339-2.76702 0-27.231201-22.429849-49.288566-50.031487-49.288566-27.662013 0-50.058093 22.057365-50.058093 49.288566 0 0.937348 0.23843 1.804089 0.295735 2.677992-127.636982 13.70207-224.524636 83.607186-224.524636 236.767472l0 214.713176c0 172.349323-442.565605 257.698177 265.890766 257.698177C1214.842001 821.464167 787.908422 736.115314 787.908422 563.765991L787.908422 563.765991zM514.782881 960.670649c52.405557 0 94.916766-41.893132 94.916766-93.54042L419.849742 867.13023C419.849742 918.777517 462.347648 960.670649 514.782881 960.670649L514.782881 960.670649zM514.782881 960.670649" p-id="7286"></path></svg>