<?xml version="1.0" standalone="no"?><!DOCTYPE svg PUBLIC "-//W3C//DTD SVG 1.1//EN" "http://www.w3.org/Graphics/SVG/1.1/DTD/svg11.dtd"><svg t="1652505813558" class="icon" viewBox="0 0 1024 1024" version="1.1" xmlns="http://www.w3.org/2000/svg" p-id="8278" xmlns:xlink="http://www.w3.org/1999/xlink" width="256" height="256"><defs><style type="text/css">@font-face { font-family: feedback-iconfont; src: url("//at.alicdn.com/t/font_1031158_u69w8yhxdu.woff2?t=1630033759944") format("woff2"), url("//at.alicdn.com/t/font_1031158_u69w8yhxdu.woff?t=1630033759944") format("woff"), url("//at.alicdn.com/t/font_1031158_u69w8yhxdu.ttf?t=1630033759944") format("truetype"); }
</style></defs><path d="M213.333333 512H128c-46.933333 0-85.333333 38.4-85.333333 85.333333v256c0 46.933333 38.4 85.333333 85.333333 85.333334h85.333333c46.933333 0 85.333333-38.4 85.333334-85.333334v-256c0-46.933333-38.4-85.333333-85.333334-85.333333zM554.666667 85.333333h-85.333334c-46.933333 0-85.333333 38.4-85.333333 85.333334v682.666666c0 46.933333 38.4 85.333333 85.333333 85.333334h85.333334c46.933333 0 85.333333-38.4 85.333333-85.333334V170.666667c0-46.933333-38.4-85.333333-85.333333-85.333334zM896 341.333333h-85.333333c-46.933333 0-85.333333 38.4-85.333334 85.333334v426.666666c0 46.933333 38.4 85.333333 85.333334 85.333334h85.333333c46.933333 0 85.333333-38.4 85.333333-85.333334V426.666667c0-46.933333-38.4-85.333333-85.333333-85.333334z" p-id="8279"></path></svg>