<?xml version="1.0" standalone="no"?><!DOCTYPE svg PUBLIC "-//W3C//DTD SVG 1.1//EN" "http://www.w3.org/Graphics/SVG/1.1/DTD/svg11.dtd"><svg t="1652505913386" class="icon" viewBox="0 0 1024 1024" version="1.1" xmlns="http://www.w3.org/2000/svg" p-id="9372" xmlns:xlink="http://www.w3.org/1999/xlink" width="256" height="256"><defs><style type="text/css">@font-face { font-family: feedback-iconfont; src: url("//at.alicdn.com/t/font_1031158_u69w8yhxdu.woff2?t=1630033759944") format("woff2"), url("//at.alicdn.com/t/font_1031158_u69w8yhxdu.woff?t=1630033759944") format("woff"), url("//at.alicdn.com/t/font_1031158_u69w8yhxdu.ttf?t=1630033759944") format("truetype"); }
</style></defs><path d="M810.5 97.5H217.6C152.1 97.5 99 150.6 99 216.1V809c0 65.5 53.1 118.6 118.6 118.6h592.9c65.5 0 118.6-53.1 118.6-118.6V216.1c-0.1-65.5-53.2-118.6-118.6-118.6z m-20 321.7c-7.7 7.7-20.2 7.7-27.9 0l-27.9-27.9-41.9 41.9 83.8 83.8c7.7 7.7 7.7 20.2 0 27.9-7.7 7.7-20.2 7.7-27.9 0l-30.8-30.8-230.6 230.5c-7.7 7.7-20.2 7.7-27.9 0l-53-53-91 91-27.9-27.9 91-91-44.8-44.8-16.5-16.5c-6.3-6.3-6.3-16.5 0-22.8l16.5-16.5 216.5-216.5-25.2-25.2c-7.7-7.7-7.7-20.2 0-27.9 7.7-7.7 20.2-7.7 27.9 0l83.8 83.8 41.9-41.9-27.9-27.9c-7.7-7.7-7.7-20.2 0-27.9 7.7-7.7 20.2-7.7 27.9 0l55.9 55.9 28 27.9 27.9 27.9c7.9 7.7 7.9 20.2 0.1 27.9zM369 583.4c-4.1 4.1-4.1 10.8 0 14.9l96.5 96.5c4.3 4.3 11.3 4.3 15.7 0l208.6-208.6L578 374.4l-209 209z" p-id="9373"></path></svg>